<svg width="62" height="15" viewBox="0 0 62 15" fill="none" xmlns="http://www.w3.org/2000/svg">
<path d="M0.22184 14V0.909091H7.81559V1.98295H1.41715V6.91122H7.41289V7.98509H1.41715V12.9261H7.94343V14H0.22184ZM16.16 4.18182V5.17259H11.4747V4.18182H16.16ZM12.9384 1.82955H14.0826V11.4368C14.0826 11.8459 14.1529 12.1676 14.2935 12.402C14.4342 12.6321 14.6174 12.7962 14.8433 12.8942C15.0691 12.9879 15.3099 13.0348 15.5656 13.0348C15.7147 13.0348 15.8426 13.0263 15.9491 13.0092C16.0556 12.9879 16.1494 12.9666 16.2303 12.9453L16.4732 13.9744C16.3624 14.017 16.2261 14.0554 16.0641 14.0895C15.9022 14.1278 15.7019 14.147 15.4633 14.147C15.0457 14.147 14.643 14.0554 14.2552 13.8722C13.8717 13.6889 13.5563 13.4162 13.3092 13.054C13.062 12.6918 12.9384 12.2422 12.9384 11.7053V1.82955ZM21.7127 7.86364V14H20.5749V0.909091H21.7127V5.7223H21.815C22.0451 5.2152 22.4009 4.81037 22.8825 4.50781C23.3683 4.20526 23.9819 4.05398 24.7234 4.05398C25.3882 4.05398 25.972 4.19034 26.4748 4.46307C26.9776 4.73579 27.3697 5.13849 27.6509 5.67116C27.9322 6.20383 28.0728 6.86008 28.0728 7.63991V14H26.9286V7.71023C26.9286 6.90057 26.7028 6.26349 26.2511 5.79901C25.8036 5.33026 25.1985 5.09588 24.4357 5.09588C23.9116 5.09588 23.445 5.20668 23.0359 5.42827C22.6268 5.64986 22.3029 5.96946 22.0643 6.38707C21.8299 6.80043 21.7127 7.29261 21.7127 7.86364ZM36.6585 14.2045C35.7424 14.2045 34.9497 13.9915 34.2807 13.5653C33.6117 13.1349 33.0939 12.5405 32.7274 11.782C32.3652 11.0192 32.1841 10.1413 32.1841 9.14844C32.1841 8.1598 32.3652 7.28196 32.7274 6.51491C33.0939 5.74361 33.5989 5.14062 34.2424 4.70597C34.8901 4.26705 35.6379 4.04759 36.486 4.04759C37.0186 4.04759 37.5321 4.1456 38.0264 4.34162C38.5208 4.53338 38.9639 4.82954 39.356 5.23011C39.7523 5.62642 40.0655 6.12713 40.2956 6.73224C40.5257 7.3331 40.6408 8.04474 40.6408 8.86719V9.42969H32.9703V8.42614H39.4774C39.4774 7.79545 39.3496 7.22869 39.0939 6.72585C38.8425 6.21875 38.4909 5.81818 38.0392 5.52415C37.5918 5.23011 37.074 5.0831 36.486 5.0831C35.8638 5.0831 35.3162 5.24929 34.8432 5.58168C34.3702 5.91406 33.9995 6.35298 33.731 6.89844C33.4668 7.44389 33.3326 8.04048 33.3283 8.68821V9.28906C33.3283 10.0689 33.4625 10.7507 33.731 11.3345C34.0037 11.9141 34.3894 12.3636 34.8879 12.6832C35.3865 13.0028 35.9767 13.1626 36.6585 13.1626C37.123 13.1626 37.53 13.0902 37.8794 12.9453C38.2331 12.8004 38.5293 12.6065 38.7679 12.3636C39.0108 12.1165 39.1941 11.8459 39.3176 11.5518L40.3979 11.9034C40.2487 12.3168 40.0037 12.6982 39.6628 13.0476C39.3262 13.397 38.9043 13.6783 38.3972 13.8913C37.8943 14.1001 37.3148 14.2045 36.6585 14.2045ZM44.7681 14V4.18182H45.8739V5.69034H45.957C46.153 5.19602 46.4939 4.79758 46.9797 4.49503C47.4698 4.18821 48.0238 4.0348 48.6416 4.0348C48.7354 4.0348 48.8398 4.03693 48.9549 4.04119C49.0699 4.04545 49.1658 4.04972 49.2425 4.05398V5.21094C49.1914 5.20241 49.1019 5.18963 48.974 5.17259C48.8462 5.15554 48.7077 5.14702 48.5586 5.14702C48.0472 5.14702 47.5912 5.25568 47.1907 5.47301C46.7943 5.68608 46.4811 5.98224 46.251 6.36151C46.0209 6.74077 45.9059 7.1733 45.9059 7.65909V14H44.7681ZM53.2451 0.909091L56.8694 6.59162H56.9525L60.5768 0.909091H61.9895L57.7771 7.45455L61.9895 14H60.5768L56.9525 8.38139H56.8694L53.2451 14H51.8325L56.1088 7.45455L51.8325 0.909091H53.2451Z" fill="white"/>
</svg>
